<svg height="88" viewBox="0 0 264 88" width="264" xmlns="http://www.w3.org/2000/svg"><g fill="none" fill-rule="evenodd"><path d="m113 54-5 5 5 5" stroke="#fff" transform="matrix(-1 0 0 1 221 0)"/><path d="m156 54-5 5 5 5" stroke="#fff"/><g fill="#fff"><path d="m67.0018835 59.5v3.768331c-6.3065693.8381728-9.1843653 5.7503485-10.0018835 9.731669 2.2189781-2.828833 5.5639273-5.0975409 10.0018835-5.0975409v3.5975409l5.9981165-5.9146049z"/><g transform="translate(13 15)"><path d="m0 14v-5h2v3h3v2z"/><path d="m0 0h5v2h-3v3h-2z"/><path d="m18 0v5h-2v-3h-.7370257-2.2629743v-2z"/><path d="m18 14h-5v-2h3v-3h2z"/></g><g transform="translate(57 15)"><path d="m0 14v-5h2v3h3v2z" transform="matrix(-1 0 0 -1 5 23)"/><path d="m0 0h5v2h-3v3h-2z" transform="matrix(-1 0 0 -1 5 5)"/><path d="m18 0v5h-2v-3h-.7370257-2.2629743v-2z" transform="matrix(-1 0 0 -1 31 5)"/><path d="m18 14h-5v-2h3v-3h2z" transform="matrix(-1 0 0 -1 31 23)"/></g><path d="m23 65h8v2h-8v8h-2v-8h-8v-2h8v-8h2z" transform="matrix(.70710678 -.70710678 .70710678 .70710678 -40.225397 34.887302)"/></g><g transform="translate(147 16)"><path d="m9.326903 10.625h4.596194v2h-4.596194z" fill="#fff" transform="matrix(-.70710678 -.70710678 -.70710678 .70710678 28.065233 11.625)"/><path d="m5.5 11c3.03756612 0 5.5-2.46243388 5.5-5.5s-2.46243388-5.5-5.5-5.5-5.5 2.46243388-5.5 5.5 2.46243388 5.5 5.5 5.5z" stroke="#fff" stroke-width="1.5"/><path d="m3 5h5v1h-5z" fill="#fff"/></g><g transform="translate(103 16)"><path d="m5.5 11c3.03756612 0 5.5-2.46243388 5.5-5.5s-2.46243388-5.5-5.5-5.5-5.5 2.46243388-5.5 5.5 2.46243388 5.5 5.5 5.5z" stroke="#fff" stroke-width="1.5"/><g fill="#fff"><path d="m3 5h5v1h-5z"/><path d="m3 5h5v1h-5z" transform="matrix(-.01745241 .9998477 -.9998477 -.01745241 11.095151 .096826)"/><path d="m9.326903 10.625h4.596194v2h-4.596194z" transform="matrix(-.70710678 -.70710678 -.70710678 .70710678 28.065233 11.625)"/></g></g></g></svg>
