<svg height="113" viewBox="0 0 113 113" width="113" xmlns="http://www.w3.org/2000/svg"><path d="m56.098 112.196c30.9820699 0 56.098-25.1159301 56.098-56.098s-25.1159301-56.098-56.098-56.098-56.098 25.1159301-56.098 56.098 25.1159301 56.098 56.098 56.098zm27.2207856-38.4403497c-3.3739848-.0391723-6.2514744-1.3427414-8.8790796-3.3296504-1.7142724-1.2970403-3.1841163-2.8552296-4.5994004-4.4623844-.2378812-.2698541-.347001-.3297007-.6350773-.0304674-1.4447464 1.4961664-2.8174737 3.0674132-4.4411766 4.3851278-2.0525438 1.6659133-4.3178712 2.9183407-6.9716652 3.2774206-4.6921522.6354627-8.7448623-.5973784-11.8940602-4.2676107-.7136436-.8335008-1.2516043-1.7812542-1.6935396-2.7845018-.0567423-.1251339-.0720191-.278559-.2160572-.3851949-.6176182 1.3307721-1.3836393 2.5549083-2.3875417 3.6180025-2.5283061 2.6811303-5.6480417 4.0793659-9.3286532 4.2088523-2.6603412.0935784-5.2661224-.2448273-7.6929472-1.3917069-4.0647132-1.9216217-6.2994871-5.1196095-6.5766515-9.6342238-.0218239-.3438462.0742015-.4308959.4168377-.4298078 2.18567.0152337 4.3724312.0152337 6.5581011 0 .3284507-.0021762.4201113.0935784.4757624.413486.4212025 2.4885329 1.7622851 4.2197335 4.2764057 4.8421387 3.5082022.8672325 6.7305104-1.1153241 7.6525729-4.7170048.6198005-2.4243337.352457-4.7398553-1.2592427-6.7583198-1.0682831-1.339477-2.521759-1.9923497-4.2273018-2.112043-2.4541047-.1719231-4.4619094.6343746-5.9110205 2.6658966-.1342174.1915093-.2924412.2382985-.5095896.2361223-1.9707039-.0054406-3.9403166-.0108813-5.9110206.0043524-.341545.0021763-.4124729-.0935784-.3535482-.4189266 1.0224527-5.6680225 2.0361758-11.3382213 3.0509902-17.0084201.1385821-.7758304.2815291-1.5516607.4081081-2.3285791.0414655-.2546203.1396733-.3492869.4157465-.3481987 6.5439155.0087049 13.0867398.0087049 19.6306553 0 .3120827-.0010882.3808282.1011952.3786458.3928117-.0141856 1.7486105-.0174592 3.4993973.0021824 5.2480078.0021824.3569037-.0883871.4537465-.4517561.4526584-4.6877874-.0119694-9.3755748-.0032644-14.0644534-.0163219-.3884665-.0010881-.561967.0631111-.6350773.4994476-.4113817 2.4874447-.8675026 4.9683607-1.3039818 7.4525411-.0196416.1055477-.0938431.2491797.0218239.3177313.126579.0772566.1985981-.0750803.2727996-.1479844 2.1485692-2.0630775 4.768536-2.6930996 7.65912-2.5385864 2.780373.1479844 5.153729 1.1882282 7.1113386 3.1599035.8173074.8226195 1.4523848 1.7736373 1.9652479 2.8095286.0556511.1131646.1134846.225241.2116924.4232791.5532375-1.4548179 1.2363276-2.723567 2.2053116-3.8225693 2.1245628-2.4091 4.8100016-3.7083166 8.0017562-4.0021092 4.497919-.4145742 8.1948984 1.3177146 11.430301 4.2621701 1.3410826 1.2197837 2.5283062 2.5864638 3.6937059 3.9705538.2498843.2948808.357913.3209957.6198005.0108812 1.5003975-1.7779898 2.995339-3.5625084 4.8427376-5.0086212 2.1300188-1.6648253 4.4771861-2.867199 7.1975432-3.1849304 6.7272368-.7856234 12.3490898 2.867199 13.781833 9.7920014.6012502 2.9129.4179289 5.7931565-.5957942 8.5983326-1.8746785 5.1914255-6.2078264 8.1522029-11.7423836 8.0869156zm-.7190996-19.3239418c-1.7328227.2285055-3.1612012 1.0837686-4.5099221 2.1131311-1.5014887 1.1490559-2.7607314 2.5505558-4.0570749 3.9117952-.1745917.1828043-.0982078.278559.0294624.4211029.9122417 1.0184813 1.8517633 2.0075833 2.9200463 2.8628464 1.7710147 1.4232624 3.6893411 2.516824 6.0255964 2.7333601 2.63197.2448273 4.7630801-.9847495 5.7058753-3.362294.3262682-.8226195.462668-1.6833233.4670328-2.6887471.010912-.2502679-.0316447-.620229-.0774751-.9901902-.4146553-3.3013593-3.2015754-5.4362528-6.5035411-5.0010044zm-21.9669106 2.0304339c-1.1217518-.8062977-2.3024282-1.5244576-3.6620612-1.8617751-2.0689117-.5103288-3.9512286-.2176242-5.4221637 1.4613466-1.1413933 1.3024809-1.6859012 2.8443484-1.6837188 4.6821849.0130944.1643062.0272799.4363365.0512863.7072787.2236956 2.5570844 1.9346944 4.47653 4.416079 4.9281002 1.3629066.2491797 2.6876212.0674635 3.9741438-.4308959 2.7443635-1.0652705 4.8372816-2.983628 6.7490608-5.1391958.1396734-.1588656.0698367-.2361222-.0392831-.3503749-1.3694538-1.4308792-2.7661874-2.8356435-4.3833431-3.9966687z"/></svg>
