<svg height="113" viewBox="0 0 113 113" width="113" xmlns="http://www.w3.org/2000/svg"><path d="m56.5 113c-31.2040884 0-56.5-25.2959116-56.5-56.5s25.2959116-56.5 56.5-56.5 56.5 25.2959116 56.5 56.5-25.2959116 56.5-56.5 56.5zm20.3894375-66.2452411c-16.3476696 0-16.3688571 16.286125-16.3688571 16.3698661 0 0-1.1199108 16.3063036 16.3688571 16.3063036 0 0 14.5850714.8293393 14.5850714-11.3484286h-7.4892768s.2481965 4.5845714-6.8465892 4.5845714c0 0-7.4892768.4984107-7.4892768-7.4065446h22.0743482s2.4274821-18.5057679-14.8342768-18.5057679zm-7.3238125 12.8002768s.9130804-6.5560178 7.4902857-6.5560178c6.5973839 0 6.4935612 6.5560178 6.4935612 6.5560178zm-18.7115893-4.1900803s6.4934643-.4772233 6.4934643-8.1117858c0-7.613375-5.311-11.3484285-12.0536696-11.3484285h-22.1792768v42.6332857h22.1772589s13.5478929.4156786 13.5478929-12.5924375c.0010089 0 .5821517-10.5806339-7.9856697-10.5806339zm-17.967-11.8882054h12.4057857s3.008625 0 3.008625 4.4392857-1.7636071 5.0829822-3.7764196 5.0829822h-11.6379911zm11.7842857 27.4892679h-11.7842857v-11.4109901l12.4057857.0000079s4.5028482-.0413661 4.4816607 5.8709554c0 4.9800714-3.3395535 5.4986607-5.1031607 5.5400268zm23.0479643-32.5510625v5.2494553h17.5936964v-5.2494553z"/></svg>
