<svg height="113" viewBox="0 0 113 113" width="113" xmlns="http://www.w3.org/2000/svg"><path d="m56.098 112.196c-30.9820699 0-56.098-25.1159301-56.098-56.098s25.1159301-56.098 56.098-56.098 56.098 25.1159301 56.098 56.098-25.1159301 56.098-56.098 56.098zm-.001-91.724c-19.669 0-35.671 15.983-35.671 35.627s16.002 35.626 35.671 35.626c19.67 0 35.673-15.981 35.673-35.626 0-19.644-16.003-35.627-35.673-35.627zm23.473 16.815c4.069 5.043 6.542 11.412 6.656 18.352-1.354-.278-7.088-1.347-13.94-1.347-2.211 0-4.538.111-6.871.399-.197-.479-.394-.956-.601-1.438-.605-1.423-1.257-2.835-1.932-4.226 10.546-4.345 15.633-10.375 16.688-11.74zm-23.473-11.238c7.601 0 14.549 2.824 19.856 7.475-.84 1.146-5.396 6.841-15.565 10.683-4.707-8.604-9.859-15.729-11.085-17.383 2.185-.506 4.459-.775 6.794-.775zm-12.945 2.92c1.039 1.431 6.199 8.632 11.027 17.167-12.957 3.406-24.463 3.628-27.24 3.628h-.295c1.995-9.194 8.207-16.834 16.508-20.795zm-17.192 27.177c0-.248.004-.496.012-.743.18.002.446.002.791.002 3.74 0 16.722-.309 30.1-4.279.812 1.588 1.585 3.2 2.304 4.811-.338.097-.671.194-1.002.302-15.063 4.865-23.342 17.744-24.616 19.849-4.72-5.318-7.589-12.3-7.589-19.942zm30.137 30.095c-6.912 0-13.291-2.341-18.381-6.266.861-1.688 7.11-12.939 23.617-18.684.01-.004.021-.008.033-.011 4.139 10.776 5.892 19.82 6.373 22.623-3.582 1.506-7.516 2.338-11.642 2.338zm17.07-5.305c-.404-2.319-2.028-10.795-5.776-21.133 2.102-.327 4.147-.456 6.065-.456 6.299 0 11.226 1.379 12.371 1.729-1.361 8.209-6.061 15.313-12.66 19.86z"/></svg>
