<svg height="113" viewBox="0 0 113 113" width="113" xmlns="http://www.w3.org/2000/svg"><path d="m56.101 112.192c-30.985 0-56.101-25.115-56.101-56.096 0-30.977 25.116-56.093 56.101-56.093 30.976 0 56.095 25.115 56.095 56.093 0 30.981-25.119 56.096-56.095 56.096zm28.145-56.096c0-6.846-5.547-12.4-12.396-12.4-6.859 0-12.406 5.553-12.406 12.4 0 6.848 5.547 12.401 12.406 12.401 6.849 0 12.396-5.552 12.396-12.401zm-31.497 0c0-6.846-5.547-12.4-12.406-12.4-6.847 0-12.394 5.553-12.394 12.4 0 6.848 5.547 12.401 12.394 12.401 6.859 0 12.406-5.552 12.406-12.401z"/></svg>
