<svg height="113" viewBox="0 0 113 113" width="113" xmlns="http://www.w3.org/2000/svg"><path d="m57.1218127.62181265c31.2028454 0 56.5000003 25.29715455 56.5000003 56.50000005 0 31.2028454-25.2971549 56.5000003-56.5000003 56.5000003-31.2028455 0-56.50000005-25.2971549-56.50000005-56.5000003 0-31.2028455 25.29715455-56.50000005 56.50000005-56.50000005zm26.7531873 68.75418735v-26.752c0-7.51-6.109-13.62-13.62-13.62h-26.752c-7.51 0-13.62 6.11-13.62 13.62v26.752c0 7.511 6.11 13.62 13.62 13.62h26.752c7.511 0 13.62-6.109 13.62-13.62zm-13.62-34.496c4.271 0 7.745 3.474 7.745 7.744v26.752c0 4.271-3.475 7.745-7.745 7.745h-26.752c-4.27 0-7.744-3.475-7.744-7.745v-26.752c0-4.27 3.474-7.744 7.744-7.744zm-13.376 35.026c7.667 0 13.906-6.239 13.906-13.906s-6.238-13.905-13.906-13.905c-7.667 0-13.905 6.238-13.905 13.905 0 7.668 6.238 13.906 13.905 13.906zm14.353-24.936c1.814 0 3.29-1.476 3.29-3.29s-1.476-3.29-3.29-3.29c-1.815 0-3.291 1.476-3.291 3.29s1.476 3.29 3.291 3.29zm-14.353 3.001c4.427 0 8.029 3.603 8.029 8.028 0 4.428-3.601 8.031-8.029 8.031-4.426 0-8.03-3.603-8.03-8.031 0-4.426 3.604-8.028 8.03-8.028z" transform="translate(-1)"/></svg>
