<svg height="112" viewBox="0 0 113 112" width="113" xmlns="http://www.w3.org/2000/svg"><path d="m56.098 112.202061c-30.9820699 0-56.098-24.8956145-56.098-55.6059119 0-30.7102973 25.1159301-55.60591226 56.098-55.60591226s56.098 24.89561496 56.098 55.60591226c0 30.7102974-25.1159301 55.6059119-56.098 55.6059119zm30.21-52.839959c0-10.9778306-5.9144057-16.0869315-13.8032607-16.0869315-6.3713548 0-9.2132026 3.4746141-10.806712 5.9050712v.1170023h-.079586c.0214614-.0381144.0554419-.0771151.079586-.1170023v-5.0656683h-11.9924546c.1609605 3.3531799 0 35.7468656 0 35.7468656h11.9915604v-19.9648491c0-1.0716349.0813745-2.1326331.397036-2.8966937.8691869-2.1379513 2.8373767-4.3459268 6.1504812-4.3459268 4.3414635 0 6.0726835 3.2796103 6.0726835 8.0820234v19.1263325h11.9906662zm-49.1466189-32.4787782c-4.1018112 0-6.7853811 2.6688936-6.7853811 6.1754175 0 3.4320678 2.6057723 6.1780766 6.6279974 6.1780766h.0777976c4.1822915 0 6.7826984-2.7460088 6.7826984-6.1780766-.079586-3.5065239-2.6004069-6.1754175-6.7031123-6.1754175zm-6.0726836 52.9790015h11.9870893v-35.7477519h-11.9870893z" transform="translate(0 -1)"/></svg>
