<svg height="113" viewBox="0 0 113 113" width="113" xmlns="http://www.w3.org/2000/svg"><path d="m56.098 112.196c-30.9820699 0-56.098-25.1159301-56.098-56.098s25.1159301-56.098 56.098-56.098 56.098 25.1159301 56.098 56.098-25.1159301 56.098-56.098 56.098zm23.1903656-77.9082232-1.7932392-1.5862641c-4.1763571-3.703401-10.5715231-3.3194078-14.2736532.8580387l-5.1320735 5.7898547c-1.158334 1.3070293-1.0379617 3.313598.2685229 4.4730214l.4816709.4273853c1.3110236 1.1623284 3.3114193 1.0423191 4.4746554-.268886l5.1317104-5.7896732c1.1447173-1.290326 3.1276835-1.4090643 4.4187358-.2661626l1.7910604 1.5889874c1.2914154 1.1443542 1.4130587 3.1269573.2667074 4.4180096l-11.221679 12.6592478c-.949725 1.0731838-2.5038535 1.3625857-3.7792918.7035336-1.3947214-.7202369-3.0957295-.4037829-4.1371409.7707097l-.0875105.0987671c-.7046229.7946752-.9983822 1.8497033-.8059318 2.8945642.1926321 1.0443163.8427879 1.9252311 1.7837982 2.4170692 1.4882232.7777905 3.0953664 1.1543398 4.686714 1.1543398 2.8199443 0 5.5910498-1.1822996 7.5654828-3.4087338l11.2209528-12.6577954c3.6979543-4.1718182 3.3130533-10.5751543-.8594911-14.2760134zm-23.8055806 33.7363888-.4827603-.4277484c-1.307937-1.1588788-3.3150504-1.037054-4.473566.2703384l-5.1297133 5.7891286c-1.1452619 1.2899629-3.1267757 1.409609-4.4167387.2674335l-1.7936022-1.5911661c-1.2917785-1.1439911-1.4130586-3.1249602-.2663442-4.4163756l11.2213159-12.65834c.9302984-1.0506707 2.461006-1.3511476 3.722646-.7313118 1.4499147.7124299 3.2104735.366019 4.2838389-.8453297l.0403057-.0453893c.6895537-.7785167.9796819-1.8117579.7963092-2.834832-.1833726-1.0232556-.8141018-1.8912799-1.7307834-2.3818471-4.1445847-2.2186273-9.2174706-1.310842-12.3362578 2.2086417l-11.2220421 12.6557982v.0001816c-3.6984989 4.1718182-3.3137795 10.5749727.8580387 14.2743794l1.7932391 1.5884427c1.9214184 1.70355 4.3156114 2.5403465 6.7018159 2.5403465 2.7948894 0 5.5781592-1.1487116 7.5741975-3.3994745l5.1304395-5.7891285c1.1606943-1.3106604 1.0415929-3.310693-.2703384-4.4737476z"/></svg>
