<svg width="16" height="16" fill="none" xmlns="http://www.w3.org/2000/svg"><g clip-path="url(#clip0)"><path d="M5.86 12.694l-.81.804a1.812 1.812 0 0 1-2.545 0 1.751 1.751 0 0 1-.522-1.251c0-.473.185-.917.522-1.252l2.98-2.957c.618-.612 1.78-1.514 2.626-.674a.991.991 0 0 0 1.397-1.407c-1.439-1.428-3.566-1.164-5.42.674l-2.98 2.957A3.72 3.72 0 0 0 0 12.247a3.72 3.72 0 0 0 1.109 2.658A3.777 3.777 0 0 0 3.777 16c.967 0 1.934-.365 2.67-1.095l.81-.805a.99.99 0 1 0-1.397-1.406zm9.03-11.485C13.346-.325 11.184-.41 9.753 1.01l-1.01 1.002A.992.992 0 0 0 10.14 3.42l1.009-1.001c.741-.736 1.712-.431 2.345.197a1.75 1.75 0 0 1 .523 1.252 1.752 1.752 0 0 1-.522 1.251l-3.18 3.154c-1.454 1.443-2.136.766-2.427.477a.991.991 0 0 0-1.397 1.407c.668.662 1.43.99 2.228.99.978 0 2.01-.492 2.993-1.467l3.18-3.154A3.722 3.722 0 0 0 16 3.867a3.722 3.722 0 0 0-1.11-2.658z" fill="#000"/></g><defs><clipPath id="clip0"><path fill="#fff" d="M0 0h16v16H0z"/></clipPath></defs></svg>
