<svg height="113" viewBox="0 0 113 113" width="113" xmlns="http://www.w3.org/2000/svg"><path d="m84.7351931 7.56846724c-8.6431362-5.04467069-18.0833121-7.56651896-28.3181897-7.56651896-10.2362413 0-19.6760275 2.52184827-28.3193586 7.56651896-8.643331 5.04486556-15.4874293 11.88896376-20.53112583 20.53112586-5.04467069 8.6443052-7.56651897 18.0840914-7.56651897 28.3193586 0 11.4106621 3.10847414 21.7684759 9.32892931 31.0722724 6.21928619 9.3065242 14.37262589 16.1862759 24.46216209 20.6417879-.1967759-5.240083.1217672-9.573243.9550448-13.0012344l7.2721345-30.7061914c-1.2244914-2.3991069-1.83625-5.3860086-1.83625-8.9618741 0-4.1624914 1.0528483-7.6405535 3.1585448-10.4306793 2.1045276-2.7924638 4.6764466-4.1887931 7.7132242-4.1887931 2.4478137 0 4.3341344.8071706 5.6566241 2.4252137 1.3222948 1.6155104 1.9841241 3.6485363 1.9841241 6.0965449 0 1.5190707-.2826948 3.3683741-.8443827 5.5467414-.5640259 2.1795362-1.2985259 4.7011896-2.2035 7.5665189-.9061431 2.8641604-1.5547242 5.1533845-1.9471069 6.8680621-.6867673 2.9867069-.1227414 5.5453776 1.6895448 7.6762069 1.8109224 2.1306345 4.2113931 3.1951724 7.199269 3.1951724 5.2404724 0 9.5377845-2.9128672 12.8929103-8.7409397 3.3543466-5.8280724 5.0316173-12.9046 5.0316173-21.2309465 0-6.4146983-2.0684845-11.6314017-6.2070121-15.6469931-4.1385276-4.0146173-9.9062035-6.0236793-17.2997155-6.0236793-8.2774449 0-14.974838 2.6578379-20.0912052 7.9696172-5.1175362 5.3143121-7.6764017 11.6693931-7.6764017 19.0619311 0 4.4079741 1.2496241 8.106581 3.7463396 11.0936775.8323035.979788 1.10175 2.0316621.8083397 3.1571811-.0989724.2945793-.2943845 1.0288845-.5877948 2.2033051-.2932156 1.1746156-.4899914 1.9354173-.5877949 2.2773397-.3923827 1.5681672-1.3222948 2.0581586-2.7924638 1.4691948-3.7712776-1.5669982-6.6366069-4.2842586-8.5944293-8.1535345-1.9589914-3.8681068-2.938-8.3487517-2.938-13.4423241 0-3.2812862.5258397-6.5627672 1.578688-9.8440534 1.0528482-3.2812862 2.6923224-6.4517156 4.9221241-9.5138207 2.227269-3.0584035 4.8969914-5.7661173 8.0078034-8.1163224 3.1096431-2.3513742 6.893-4.2351621 11.3498759-5.6577931 4.4559017-1.4189294 9.2562586-2.1294656 14.3985379-2.1294656 6.9539811 0 13.1984 1.5428397 18.7318931 4.62735 5.5334931 3.0858742 9.7581345 7.0778914 12.6721707 11.974688 2.9128673 4.8969913 4.3711518 10.1361 4.3711518 15.7210276 0 7.3459741-1.2743673 13.9576431-3.8199845 19.834812-2.5467862 5.877169-6.1466155 10.4924397-10.7992931 13.8467862-4.6538466 3.3539569-9.9430259 5.0316173-15.8677328 5.0316173-2.9878759 0-5.7793655-.6974828-8.3748586-2.0940069-2.5970517-1.3961345-4.3842052-3.0486621-5.3632138-4.9589466-2.2035 8.6671-3.5257948 13.8362655-3.9668845 15.4995086-.9312759 3.4780617-2.8413655 7.4924847-5.7304638 12.0473587 5.2402776 1.566998 10.5783586 2.35001 16.0144379 2.35001 10.2350725 0 19.6750535-2.521653 28.3181897-7.565155 8.6431362-5.04506 15.4872349-11.8889637 20.5322949-20.5334637 5.043502-8.6435258 7.566714-18.0821431 7.566714-28.3185793 0-10.2362413-2.523212-19.6746638-7.566714-28.3191638-5.043891-8.6374862-11.8891587-15.4815844-20.5322949-20.52644996z"/></svg>
