<svg xmlns:svg="http://www.w3.org/2000/svg" xmlns="http://www.w3.org/2000/svg" width="113" height="113" viewBox="0 0 113 113" version="1.1"><path d="m82.9 79.6q0-2.4-2.2-3.8-14.2-8.5-32.9-8.5-9.8 0-21.1 2.5-3.1 0.7-3.1 3.8 0 1.5 1 2.5 1 1.1 2.6 1.1 0.4 0 2.7-0.6 9.7-2 17.9-2 16.6 0 29.2 7.6 1.4 0.8 2.4 0.8 1.4 0 2.4-1 1-1 1-2.5zm7.1-15.8q0-2.9-2.6-4.5-17.4-10.4-40.3-10.4-11.3 0-22.3 3.1-3.5 1-3.5 4.7 0 1.8 1.3 3.1 1.3 1.3 3.1 1.3 0.5 0 2.7-0.6 9-2.4 18.5-2.4 20.5 0 35.9 9.1 1.8 1 2.8 1 1.8 0 3.1-1.3 1.3-1.3 1.3-3.1zm7.9-18.2q0-3.5-2.9-5.1-9.3-5.4-21.6-8.1-12.3-2.8-25.2-2.8-15 0-26.8 3.5-1.7 0.5-2.8 1.9-1.1 1.4-1.1 3.6 0 2.3 1.5 3.8 1.5 1.5 3.8 1.5 0.8 0 2.9-0.6 9.8-2.7 22.6-2.7 11.7 0 22.8 2.5 11.1 2.5 18.6 7 1.5 0.9 2.9 0.9 2.1 0 3.7-1.5 1.6-1.5 1.6-3.8zM113 56.5q0 15.4-7.6 28.4Q97.8 97.8 84.9 105.4 71.9 113 56.5 113 41.1 113 28.1 105.4 15.2 97.8 7.6 84.9 0 71.9 0 56.5 0 41.1 7.6 28.1 15.2 15.2 28.1 7.6 41.1 0 56.5 0 71.9 0 84.9 7.6 97.8 15.2 105.4 28.1 113 41.1 113 56.5Z" stroke-width="0.1"/></svg>
