<svg xmlns="http://www.w3.org/2000/svg" viewBox="0 0 113 113" height="113" width="113"><path d="M56.582 0C25.303 0 0 25.324 0 56.46 0 87.593 25.303 113 56.582 113 87.694 113 113 87.594 113 56.46 113 25.157 87.694 0 56.582 0zm-3.004 23.157h10.277v16.76h11.988V52.2H63.855v16.997c0 1.273.16 2.339.465 3.22.305.882.754 1.58 1.33 2.118.578.539 1.282.918 2.099 1.163.816.244 1.743.355 2.766.355h5.805v12.95H65.33c-1.237 0-2.435-.08-3.583-.243a19.957 19.957 0 01-3.29-.743 16.007 16.007 0 01-2.94-1.27 13.753 13.753 0 01-2.534-1.815 13.28 13.28 0 01-2.068-2.387 14.774 14.774 0 01-1.548-2.984 18.583 18.583 0 01-.972-3.6 25.427 25.427 0 01-.336-4.242V52.201h-8.992v-10.57a20.188 20.188 0 003.444-1.23 18.36 18.36 0 002.932-1.704 17.948 17.948 0 002.439-2.095 18.636 18.636 0 001.974-2.404 20.007 20.007 0 001.53-2.63c.44-.905.811-1.834 1.116-2.772a23.228 23.228 0 001.076-5.638z"/></svg>
