<svg width="16" height="16" fill="none" xmlns="http://www.w3.org/2000/svg"><g clip-path="url(#clip0)"><path fill-rule="evenodd" clip-rule="evenodd" d="M8 16A8 8 0 1 0 8 0a8 8 0 0 0 0 16zm0-.96A7.04 7.04 0 1 0 8 .96a7.04 7.04 0 0 0 0 14.08zm-.102-8.463l.016.263-.255-.032c-.926-.123-1.734-.542-2.421-1.245l-.336-.349-.086.258c-.183.574-.066 1.18.315 1.588.204.226.158.258-.193.124-.122-.043-.23-.075-.24-.06-.035.038.087.527.184.72.132.268.402.531.697.687l.249.123-.295.006c-.285 0-.295.005-.265.118.102.349.504.719.952.88l.315.113-.275.171a2.772 2.772 0 0 1-1.363.398c-.229.005-.417.026-.417.043 0 .053.62.354.982.472 1.083.349 2.37.198 3.337-.397.686-.424 1.373-1.267 1.694-2.083.172-.434.345-1.229.345-1.61 0-.247.016-.279.3-.574.168-.172.326-.36.357-.413.05-.102.046-.102-.214-.011-.432.161-.493.14-.28-.102.158-.172.346-.483.346-.574 0-.016-.076.01-.163.059a2.765 2.765 0 0 1-.447.182l-.275.091-.25-.177a2.038 2.038 0 0 0-.432-.236 1.665 1.665 0 0 0-.89.022 1.538 1.538 0 0 0-.992 1.545c-.045-.681 0 0 0 0z" fill="#000"/></g><defs><clipPath id="clip0"><path fill="#fff" d="M0 0h16v16H0z"/></clipPath></defs></svg>
