<svg height="113" viewBox="0 0 113 113" width="113" xmlns="http://www.w3.org/2000/svg"><path d="m56.099 112.196c-30.9820699 0-56.098-25.1159301-56.098-56.098s25.1159301-56.098 56.098-56.098 56.098 25.1159301 56.098 56.098-25.1159301 56.098-56.098 56.098zm34.362-71.88c-2.404 1.066-4.99 1.787-7.702 2.109 2.769-1.659 4.894-4.284 5.897-7.417-2.591 1.537-5.462 2.652-8.515 3.253-2.446-2.605-5.931-4.233-9.79-4.233-7.404 0-13.409 6.005-13.409 13.409 0 1.051.119 2.074.349 3.056-11.144-.559-21.025-5.897-27.639-14.012-1.154 1.98-1.816 4.285-1.816 6.742 0 4.651 2.369 8.757 5.965 11.161-2.197-.069-4.266-.672-6.073-1.679-.001.057-.001.114-.001.17 0 6.497 4.624 11.916 10.757 13.147-1.124.308-2.311.471-3.532.471-.866 0-1.705-.083-2.523-.239 1.706 5.326 6.657 9.203 12.526 9.312-4.59 3.597-10.371 5.74-16.655 5.74-1.08 0-2.15-.063-3.197-.188 5.931 3.806 12.981 6.025 20.553 6.025 24.664 0 38.152-20.432 38.152-38.153 0-.581-.013-1.16-.039-1.734 2.622-1.89 4.895-4.251 6.692-6.94z"/></svg>
