<svg height="113" viewBox="0 0 113 113" width="113" xmlns="http://www.w3.org/2000/svg"><path d="m56.3680377 0c31.1330479 0 56.3684243 25.2388596 56.3684243 56.3684247 0 31.1330479-25.2353764 56.3680373-56.3684243 56.3680373-31.133048 0-56.3680377-25.2353764-56.3680377-56.3680373 0-31.1295651 25.2353767-56.3684247 56.3680377-56.3684247zm-31.7069487 45.7990548 2.7518596 3.7905308s3.8892124-3.0896986 5.2668836-2.8606027c3.5509863.9337979 6.5876678 15.4945445 8.134452 21.0431541 1.5429144 5.5559623 3.4314076 16.780113 11.048072 16.780113 12.3131301 0 32.6937637-30.8052705 32.6937637-40.8599486 0-6.6058562-1.8354761-11.9853528-9.4521404-11.9853528-7.6131816 0-13.5669658 4.9712261-16.1458425 14.3212021 2.8041027-1.3424555 7.9053562-2.0436747 8.3000822 2.6315068.4013048 4.6751815-6.6410719 16.7766302-9.7342534 16.7766302-3.0862158 0-5.3794966-13.6799658-6.1863631-19.9332774-.7964178-6.2533117-2.230202-13.1478596-8.0678904-13.1478596-5.8446541 0-13.3382568 9.237363-18.6086233 13.4439041z"/></svg>
